<svg width="38" height="33" viewBox="0 0 38 33" fill="none" xmlns="http://www.w3.org/2000/svg">
<path d="M22.258 0.973146C21.8332 0.875342 18.4379 0.413053 18.1392 0.470791C18.2596 0.959129 19.419 0.909465 19.7696 1.09898C19.5999 1.20128 17.682 1.1082 17.337 1.09388L17.2736 1.1146C16.647 1.32498 16.7648 1.65039 16.1004 1.48464C13.9307 1.96269 12.5312 1.8735 10.3177 2.62943C10.7059 2.89481 12.7088 2.55775 13.3005 2.55105C13.9087 2.54411 14.4146 2.54747 15.0446 2.58091C14.0805 2.91248 13.0668 3.08341 12.14 3.40562C10.0791 4.12217 8.07163 5.00066 5.90073 5.33048C5.75685 5.35234 5.67808 5.40208 5.61097 5.52594C5.98338 5.7984 13.1602 4.71037 14.2715 4.66154C13.6378 4.93424 12.7237 5.21401 12.0506 5.39568C9.34066 6.12686 6.90658 7.4444 4.2862 8.39495C4.28033 8.62111 4.32817 8.70162 4.41409 8.90424C6.47995 8.83317 7.15346 8.45025 8.96109 7.92634C8.28598 8.44484 7.48473 8.75623 6.9321 9.23155L6.92083 9.26209C6.8215 9.52306 6.6882 9.60639 6.70839 9.84732C6.92487 10.2942 7.29575 10.8165 7.84373 10.7493C8.01192 10.6507 8.04436 10.6133 8.23091 10.6136L8.25361 10.7059C7.98853 11.0269 7.80922 11.1841 7.50408 11.4573C8.58534 10.9799 10.0539 10.0301 11.0623 9.68713C11.7452 9.3567 13.0155 8.8919 13.7565 8.72706L13.862 8.78198L13.8113 8.71647L13.9189 8.74488C13.5923 8.99374 11.627 9.77397 11.0907 10.0197C10.0491 10.8343 8.9454 11.3216 8.01039 12.0897L8.17165 12.2998C8.53902 12.0379 9.35947 11.4464 9.7676 11.5077L9.77819 11.6095C9.30478 11.9935 7.65101 13.2017 7.50644 13.7608C7.64111 13.8154 10.1564 12.9922 10.4564 12.8652C10.5088 12.8429 10.5608 12.8198 10.6123 12.7956C9.18504 14.5526 8.36916 15.7799 7.74509 18.0093C7.68719 18.2161 7.59914 18.3333 7.77449 18.4921C8.02486 18.3252 8.721 16.4464 9.21269 15.8149C10.4642 14.2072 11.6011 13.0677 13.2502 11.8842C12.9432 12.6721 12.3948 13.3253 12.0433 14.1633C12.4892 13.7958 13.1346 13.221 13.5895 12.9205C12.6907 14.3584 11.4646 15.4342 11.4291 17.3001C11.423 17.62 11.3064 18.1129 11.502 18.3837C11.6927 18.2804 12.2866 16.4138 12.6586 15.967C13.1073 15.4284 13.58 14.5208 14.1717 14.0165C14.7185 13.4595 15.2686 12.8106 15.8683 12.3147C14.7034 14.2432 13.047 15.9382 12.2904 18.1389C12.0365 18.8775 11.9275 18.7558 12.267 19.216C12.3325 19.3046 12.1204 20.3736 12.1364 20.6895C12.5657 19.5069 13.5631 16.9673 14.2678 15.9168C13.7998 17.9217 13.4494 19.3597 13.9286 21.429C14.001 21.7416 14.1032 22.5636 14.3541 22.7532C14.4879 22.5842 14.4686 21.3063 14.4898 20.967C14.6375 18.6028 16.2948 16.2383 18.2164 14.8644C15.8861 17.8041 15.4471 19.267 16.4792 23.016C16.5855 22.4823 16.8092 21.0788 17.1189 20.7177C17.234 20.7594 17.2261 20.7557 17.3088 20.8466C17.6426 20.4442 17.8536 19.294 18.1614 18.9551L18.2362 18.9774C18.2167 19.6273 18.1091 20.4081 18.1112 21.0362C18.114 21.8786 19.0684 25.2217 19.8499 25.5042C19.6531 24.262 19.5098 23.0119 19.4204 21.7574C19.8191 22.4401 21.0231 25.1707 21.5655 25.4212C21.6498 25.0963 21.3801 23.7866 21.3692 23.3844C21.3559 22.8968 21.2744 19.6801 21.4866 19.4237L21.2492 19.2558C20.9787 18.6884 20.7642 18.2521 20.676 17.6278C20.6218 17.1856 21.408 16.0357 21.5983 15.5463C21.7376 15.188 21.8002 14.9712 21.8989 14.5971C21.0581 15.195 19.8827 15.6707 18.8843 16.3155C19.7746 15.2452 21.2375 13.8751 22.634 13.5484L22.7177 13.2466L22.7123 13.139C23.0179 12.6085 24.0427 12.4568 24.3398 12.1361C23.8332 11.788 21.6345 12.6473 21.0695 12.9082C20.7946 13.035 19.778 13.7523 19.5762 13.7188C19.5926 13.6101 19.5907 13.5848 19.6642 13.4963C21.2691 11.5661 24.1461 11.3589 26.5183 11.1729C26.5309 10.7579 26.3728 10.25 25.9987 10.0339C25.6908 10.0292 25.3789 9.99433 25.1431 9.78882C25.1883 9.76886 26.2046 9.75325 26.4668 9.71318C25.7098 9.48162 24.6921 8.29897 25.5147 7.73149C24.8055 7.3533 24.0501 7.13941 23.3979 6.81492C21.8984 6.06897 21.1871 5.47597 19.5162 5.13457C18.9062 5.06525 18.4231 4.93111 17.8276 4.77854C18.5157 4.78075 19.0108 4.78242 19.6812 4.97209C19.7927 4.93804 19.9269 4.86576 20.0334 4.82569C21.0612 4.43996 21.8079 5.13662 23.0214 4.83338L23.005 4.77245C22.7599 4.67571 22.4297 4.59992 22.1679 4.53167C22.3021 4.42388 23.014 4.4577 23.2301 4.46509L23.2029 4.33621C23.0074 4.21708 22.6682 4.22081 22.4299 4.20786C22.0327 3.76835 20.9898 1.6037 21.173 1.02959L22.258 0.973146Z" fill="#D1D0D0"/>
<path d="M32.355 5.44336C30.9937 6.39071 31.3849 7.3491 30.4542 8.25395C30.1556 8.27809 30.2092 8.12278 30.0135 8.04668C29.5246 7.85923 28.5622 8.32593 28.0188 8.37316C27.3887 8.428 26.1467 7.95733 25.514 7.73209C24.6914 8.29957 25.7092 9.48222 26.4661 9.71378C27.0124 9.73846 28.6585 9.75057 29.1456 9.69291C28.6901 10.2215 26.8836 9.82911 25.998 10.0345C26.3722 10.2506 26.5302 10.7585 26.5176 11.1735C28.8626 11.124 30.4883 11.358 32.6068 12.3052C33.019 12.4896 34.9827 12.7458 35.2994 12.4562C34.9022 11.3612 30.6699 10.7794 29.9589 9.82332C31.7133 10.4399 34.2944 11.0993 35.7609 12.0464C36.4924 12.5188 36.0279 13.879 36.1037 14.5258L36.2248 14.5638C36.7361 14.3208 37.4101 12.8677 37.5779 12.3748C38.6387 9.25942 37.0323 7.2321 34.1014 6.27592C33.7302 6.15488 32.8545 5.63714 32.355 5.44336ZM30.9686 8.75683C31.5896 7.8558 32.3183 7.67702 33.2823 7.28253C32.8358 8.13086 31.7928 8.24801 31.002 8.74777C30.9908 8.75082 30.9797 8.75379 30.9686 8.75683Z" fill="#FCFBFC"/>
<path d="M24.9149 16.7344C24.8561 17.0794 24.9463 17.9941 24.8046 18.1422C24.2974 17.1672 24.5897 15.815 24.9581 14.8457L24.8619 14.7881C24.1146 15.1025 23.6512 17.5517 23.7906 18.3301L23.8047 18.4053L23.7258 18.4955C23.1327 18.1249 23.4094 16.6471 23.5011 16.0879C23.4933 15.8137 23.5037 15.7485 23.3522 15.5164C22.9459 16.1726 22.7026 17.6043 22.3638 17.7976C21.8043 16.8943 22.6694 15.5874 22.5838 15.316C21.9147 15.4538 21.0971 17.3187 20.6781 17.6279C20.7662 18.2522 20.9807 18.6885 21.2513 19.2559L21.4886 19.4238C21.6871 19.6039 21.6546 20.9505 21.9098 21.6292C22.6204 23.5199 24.5292 26.6982 26.1148 27.8963C25.5986 26.8808 24.7711 25.3397 24.4148 24.2859C23.9638 22.9518 23.5888 21.6305 23.1152 20.2794C23.574 20.9609 24.0494 21.8757 24.4614 22.5811C25.0577 23.6021 27.6045 26.8002 28.4939 27.3786C28.2086 26.8936 27.8328 26.3354 27.6286 25.8348L27.6707 25.7891C28.52 26.5635 30.0515 28.3401 30.6932 29.2785C31.1089 29.8863 31.5067 30.7337 31.9574 31.3667C32.0504 31.2356 32.0849 31.0746 32.1326 30.918C31.305 29.2028 30.7201 27.8794 29.5075 26.359C28.6863 25.597 27.7701 24.5436 27.2566 23.545C27.9447 24.1669 28.9915 25.4503 29.8449 26.2692C30.5836 27.0227 31.8605 28.3802 32.6909 28.9647C32.1418 27.9125 31.6839 27.4944 31.1017 26.6098C29.4068 24.0351 26.43 20.5364 25.4694 17.6782C25.1822 17.4658 25.166 17.1352 25.0815 16.77L24.9149 16.7344Z" fill="#E3E2E2"/>
<path d="M26.9319 1.05927C27.2558 1.36487 27.8984 1.74291 28.0742 2.00464C27.8443 2.00296 26.9935 1.51912 26.6809 1.38932C25.9101 1.06932 22.2299 -0.216762 21.6131 0.0316347L21.5863 0.132638C21.619 0.165163 23.8362 1.13856 24.1257 1.29471C23.5679 1.22905 22.8425 1.06871 22.2594 0.9735L21.1744 1.02994C20.9911 1.60405 22.0341 3.7687 22.4312 4.20821C22.6696 4.22116 23.0088 4.21743 23.2042 4.33656L23.2315 4.46544C23.9758 4.66974 25.2495 4.70752 26.3417 5.00299C27.7494 5.38377 29.1328 6.34041 30.4639 6.37804C30.7073 6.38497 30.8693 6.00183 31.0483 5.76547C31.327 5.72175 31.0654 5.94882 31.4155 6.12462C31.6422 5.98682 31.8014 5.60482 31.9326 5.35574C31.6851 4.87304 31.445 4.34212 31.2114 3.84906L32.2729 5.14573C31.6452 3.58452 30.7139 2.65499 29.1911 1.92961C28.5167 1.60839 27.6644 1.17954 26.9319 1.05927Z" fill="#FCFBFC"/>
<path d="M6.93553 9.23242C6.19483 9.62821 5.3136 10.4985 4.68655 11.0554C2.65253 12.8616 1.006 14.4884 0.251593 17.1989C0.159425 17.5298 0.00654984 17.9261 -9.53674e-07 18.2743L0.0683231 18.3171C0.62613 17.8555 1.47232 16.0883 2.25507 15.2988C3.4205 14.1235 4.44608 13.1082 5.82083 12.1093C6.42274 11.6718 7.31357 11.1667 7.84715 10.7501C7.29917 10.8174 6.92829 10.2951 6.71181 9.84819C6.69163 9.60726 6.82493 9.52393 6.92426 9.26297L6.93553 9.23242Z" fill="#8D8B8C"/>
<path d="M26.7089 5.95996C26.1575 6.04009 25.8629 6.41067 26.0598 6.9524C26.2238 7.40349 26.4634 7.46496 26.8656 7.656C27.1993 7.51874 27.4151 7.39489 27.5073 7.04099C27.4171 6.71597 26.9689 6.28735 26.7089 5.95996Z" fill="#FCFBFC"/>
<path d="M22.6343 13.5483C23.426 13.4221 25.691 12.6279 26.0307 11.9042C25.7533 11.8669 23.2833 13.0558 22.7793 13.2261L22.718 13.2466L22.6343 13.5483Z" fill="#FCFBFC" fill-opacity="0.980392"/>
<path d="M28.812 12.5527C27.9151 12.5052 25.9328 14.2109 26.1313 15.152C26.3331 15.0274 26.8968 14.0628 27.1575 13.8101C27.5804 13.4003 28.4851 12.9475 28.812 12.5527Z" fill="#FCFBFC" fill-opacity="0.894118"/>
<path d="M17.3393 1.09374C16.8426 1.04346 14.9951 0.812663 14.6551 1.08315L14.6077 1.22056C14.9963 1.45022 15.723 1.26193 16.1028 1.4845C16.7671 1.65025 16.6494 1.32484 17.276 1.11446L17.3393 1.09374Z" fill="#FCFBFC" fill-opacity="0.847059"/>
<path d="M29.8667 12.5273C29.2695 12.4346 27.8682 13.6909 27.8053 14.3237C27.8505 14.3257 27.8695 14.3305 27.9096 14.3221C27.9485 14.3139 29.7984 12.6374 29.8667 12.5273Z" fill="#FCFBFC" fill-opacity="0.890196"/>
<path d="M31.9567 31.3667C31.9971 31.5996 32.7915 32.9 32.976 32.9778C32.9789 32.4931 32.3762 31.3945 32.1319 30.918C32.0842 31.0745 32.0498 31.2355 31.9567 31.3667Z" fill="#FCFBFC" fill-opacity="0.87451"/>
<path d="M25.4682 17.6785C25.1919 16.7803 25.495 15.7949 25.234 15.4365C24.9816 15.8841 24.9676 16.2335 24.9138 16.7346L25.0804 16.7703C25.1649 17.1355 25.1811 17.466 25.4682 17.6785Z" fill="#FCFBFC" fill-opacity="0.917647"/>
<path d="M27.3081 12.8916C26.795 13.0094 25.7086 14.0229 25.7507 14.5722L25.9263 14.5529C26.2082 14.0788 26.9134 13.3285 27.3081 12.8916Z" fill="#FCFBFC" fill-opacity="0.858824"/>
<path d="M23.5019 16.0877C23.7407 15.5902 23.956 15.2419 24.0542 14.6925L23.9904 14.6631C23.7649 14.91 23.4454 15.2075 23.353 15.5162C23.5045 15.7483 23.4941 15.8135 23.5019 16.0877Z" fill="#FCFBFC" fill-opacity="0.913725"/>
<path d="M4.28567 8.39551C3.84562 8.52454 3.22741 8.68846 2.82697 8.8811C3.27014 8.89436 3.99446 8.93496 4.41356 8.90479C4.32764 8.70218 4.2798 8.62166 4.28567 8.39551Z" fill="#979397" fill-opacity="0.988235"/>
<path d="M8.01012 12.0898C7.62438 12.2992 7.531 12.3692 7.20528 12.6643L7.17969 12.7803C7.37142 12.7839 7.8206 12.4301 8.17137 12.3L8.01012 12.0898Z" fill="#979397" fill-opacity="0.572549"/>
</svg>
