<svg width="196" height="33" viewBox="0 0 196 33" fill="none" xmlns="http://www.w3.org/2000/svg">
<path d="M22.2581 0.973146C21.8332 0.875342 18.438 0.413053 18.1392 0.470791C18.2596 0.959129 19.4191 0.909465 19.7696 1.09898C19.6 1.20128 17.682 1.1082 17.337 1.09388L17.2736 1.1146C16.647 1.32498 16.7648 1.65039 16.1004 1.48464C13.9307 1.96269 12.5312 1.8735 10.3177 2.62943C10.7059 2.89481 12.7088 2.55775 13.3005 2.55105C13.9087 2.54411 14.4146 2.54747 15.0447 2.58091C14.0805 2.91248 13.0668 3.08341 12.14 3.40562C10.0792 4.12217 8.07165 5.00066 5.90075 5.33048C5.75686 5.35234 5.6781 5.40208 5.61099 5.52594C5.98339 5.7984 13.1602 4.71037 14.2715 4.66154C13.6378 4.93424 12.7237 5.21401 12.0506 5.39568C9.34068 6.12686 6.9066 7.4444 4.28621 8.39495C4.28034 8.62111 4.32818 8.70162 4.4141 8.90424C6.47996 8.83317 7.15347 8.45025 8.96111 7.92634C8.286 8.44484 7.48475 8.75623 6.93212 9.23155L6.92085 9.26209C6.82152 9.52306 6.68822 9.60639 6.7084 9.84732C6.92488 10.2942 7.29576 10.8165 7.84374 10.7493C8.01193 10.6507 8.04438 10.6133 8.23092 10.6136L8.25363 10.7059C7.98855 11.0269 7.80924 11.1841 7.50409 11.4573C8.58535 10.9799 10.0539 10.0301 11.0623 9.68713C11.7452 9.3567 13.0155 8.8919 13.7565 8.72706L13.862 8.78198L13.8113 8.71647L13.9189 8.74488C13.5923 8.99374 11.627 9.77397 11.0907 10.0197C10.0491 10.8343 8.94542 11.3216 8.01041 12.0897L8.17166 12.2998C8.53904 12.0379 9.35949 11.4464 9.76762 11.5077L9.7782 11.6095C9.3048 11.9935 7.65103 13.2017 7.50645 13.7608C7.64113 13.8154 10.1564 12.9922 10.4564 12.8652C10.5088 12.8429 10.5608 12.8198 10.6123 12.7956C9.18505 14.5526 8.36918 15.7799 7.7451 18.0093C7.68721 18.2161 7.59916 18.3333 7.7745 18.4921C8.02488 18.3252 8.72102 16.4464 9.21271 15.8149C10.4642 14.2072 11.6011 13.0677 13.2502 11.8842C12.9432 12.6721 12.3948 13.3253 12.0433 14.1633C12.4892 13.7958 13.1346 13.221 13.5895 12.9205C12.6907 14.3584 11.4647 15.4342 11.4292 17.3001C11.4231 17.62 11.3064 18.1129 11.5021 18.3837C11.6927 18.2804 12.2866 16.4138 12.6586 15.967C13.1073 15.4284 13.58 14.5208 14.1717 14.0165C14.7186 13.4595 15.2686 12.8106 15.8683 12.3147C14.7034 14.2432 13.047 15.9382 12.2904 18.1389C12.0365 18.8775 11.9275 18.7558 12.267 19.216C12.3325 19.3046 12.1204 20.3736 12.1364 20.6895C12.5657 19.5069 13.5631 16.9673 14.2679 15.9168C13.7998 17.9217 13.4494 19.3597 13.9287 21.429C14.001 21.7416 14.1032 22.5636 14.3542 22.7532C14.4879 22.5842 14.4686 21.3063 14.4898 20.967C14.6375 18.6028 16.2949 16.2383 18.2164 14.8644C15.8861 17.8041 15.4471 19.267 16.4792 23.016C16.5855 22.4823 16.8093 21.0788 17.1189 20.7177C17.2341 20.7594 17.2261 20.7557 17.3088 20.8466C17.6426 20.4442 17.8536 19.294 18.1614 18.9551L18.2362 18.9774C18.2168 19.6273 18.1091 20.4081 18.1113 21.0362C18.114 21.8786 19.0684 25.2217 19.85 25.5042C19.6531 24.262 19.5099 23.0119 19.4204 21.7574C19.8191 22.4401 21.0231 25.1707 21.5655 25.4212C21.6498 25.0963 21.3801 23.7866 21.3692 23.3844C21.356 22.8968 21.2744 19.6801 21.4866 19.4237L21.2492 19.2558C20.9787 18.6884 20.7642 18.2521 20.676 17.6278C20.6218 17.1856 21.408 16.0357 21.5983 15.5463C21.7377 15.188 21.8003 14.9712 21.8989 14.5971C21.0581 15.195 19.8827 15.6707 18.8843 16.3155C19.7746 15.2452 21.2375 13.8751 22.634 13.5484L22.7178 13.2466L22.7123 13.139C23.0179 12.6085 24.0427 12.4568 24.3398 12.1361C23.8332 11.788 21.6345 12.6473 21.0695 12.9082C20.7946 13.035 19.7781 13.7523 19.5762 13.7188C19.5926 13.6101 19.5907 13.5848 19.6643 13.4963C21.2691 11.5661 24.1461 11.3589 26.5184 11.1729C26.5309 10.7579 26.3729 10.25 25.9987 10.0339C25.6908 10.0292 25.3789 9.99433 25.1431 9.78882C25.1883 9.76886 26.2046 9.75325 26.4668 9.71318C25.7099 9.48162 24.6921 8.29897 25.5147 7.73149C24.8055 7.3533 24.0501 7.13941 23.3979 6.81492C21.8984 6.06897 21.1871 5.47597 19.5162 5.13457C18.9063 5.06525 18.4231 4.93111 17.8276 4.77854C18.5157 4.78075 19.0108 4.78242 19.6812 4.97209C19.7927 4.93804 19.9269 4.86576 20.0335 4.82569C21.0612 4.43996 21.8079 5.13662 23.0214 4.83338L23.005 4.77245C22.7599 4.67571 22.4297 4.59992 22.1679 4.53167C22.3022 4.42388 23.0141 4.4577 23.2302 4.46509L23.2029 4.33621C23.0074 4.21708 22.6682 4.22081 22.4299 4.20786C22.0327 3.76835 20.9898 1.6037 21.1731 1.02959L22.2581 0.973146Z" fill="#D1D0D0"/>
<path d="M32.355 5.44336C30.9937 6.39071 31.3849 7.3491 30.4542 8.25395C30.1556 8.27809 30.2093 8.12278 30.0135 8.04668C29.5246 7.85923 28.5622 8.32593 28.0188 8.37316C27.3887 8.428 26.1467 7.95733 25.514 7.73209C24.6914 8.29957 25.7092 9.48222 26.4661 9.71378C27.0124 9.73846 28.6585 9.75057 29.1456 9.69291C28.6901 10.2215 26.8836 9.82911 25.998 10.0345C26.3722 10.2506 26.5302 10.7585 26.5177 11.1735C28.8626 11.124 30.4883 11.358 32.6068 12.3052C33.019 12.4896 34.9827 12.7458 35.2994 12.4562C34.9022 11.3612 30.6699 10.7794 29.9589 9.82332C31.7133 10.4399 34.2944 11.0993 35.7609 12.0464C36.4924 12.5188 36.0279 13.879 36.1037 14.5258L36.2248 14.5638C36.7361 14.3208 37.4101 12.8677 37.5779 12.3748C38.6387 9.25942 37.0324 7.2321 34.1014 6.27592C33.7302 6.15488 32.8545 5.63714 32.355 5.44336ZM30.9686 8.75683C31.5896 7.8558 32.3183 7.67702 33.2823 7.28253C32.8358 8.13086 31.7928 8.24801 31.002 8.74777C30.9909 8.75082 30.9797 8.75379 30.9686 8.75683Z" fill="#FCFBFC"/>
<path d="M24.9149 16.7344C24.8561 17.0794 24.9463 17.9941 24.8046 18.1422C24.2975 17.1672 24.5897 15.815 24.9581 14.8457L24.8619 14.7881C24.1146 15.1025 23.6512 17.5517 23.7906 18.3301L23.8047 18.4053L23.7258 18.4955C23.1327 18.1249 23.4094 16.6471 23.5011 16.0879C23.4933 15.8137 23.5037 15.7485 23.3522 15.5164C22.9459 16.1726 22.7027 17.6043 22.3638 17.7976C21.8044 16.8943 22.6694 15.5874 22.5838 15.316C21.9147 15.4538 21.0971 17.3187 20.6781 17.6279C20.7662 18.2522 20.9807 18.6885 21.2513 19.2559L21.4886 19.4238C21.6871 19.6039 21.6546 20.9505 21.9098 21.6292C22.6204 23.5199 24.5292 26.6982 26.1148 27.8963C25.5986 26.8808 24.7711 25.3397 24.4148 24.2859C23.9638 22.9518 23.5888 21.6305 23.1152 20.2794C23.574 20.9609 24.0494 21.8757 24.4614 22.5811C25.0577 23.6021 27.6045 26.8002 28.4939 27.3786C28.2087 26.8936 27.8328 26.3354 27.6286 25.8348L27.6707 25.7891C28.52 26.5635 30.0515 28.3401 30.6932 29.2785C31.1089 29.8863 31.5067 30.7337 31.9574 31.3667C32.0505 31.2356 32.0849 31.0746 32.1326 30.918C31.305 29.2028 30.7201 27.8794 29.5075 26.359C28.6863 25.597 27.7701 24.5436 27.2566 23.545C27.9447 24.1669 28.9916 25.4503 29.8449 26.2692C30.5836 27.0227 31.8605 28.3802 32.6909 28.9647C32.1418 27.9125 31.6839 27.4944 31.1017 26.6098C29.4068 24.0351 26.43 20.5364 25.4694 17.6782C25.1822 17.4658 25.166 17.1352 25.0815 16.77L24.9149 16.7344Z" fill="#E3E2E2"/>
<path d="M26.9319 1.05927C27.2558 1.36487 27.8984 1.74291 28.0742 2.00464C27.8443 2.00296 26.9936 1.51912 26.6809 1.38932C25.9101 1.06932 22.2299 -0.216762 21.6131 0.0316347L21.5863 0.132638C21.619 0.165163 23.8362 1.13856 24.1257 1.29471C23.568 1.22905 22.8425 1.06871 22.2594 0.9735L21.1744 1.02994C20.9911 1.60405 22.0341 3.7687 22.4312 4.20821C22.6696 4.22116 23.0088 4.21743 23.2042 4.33656L23.2315 4.46544C23.9759 4.66974 25.2495 4.70752 26.3417 5.00299C27.7494 5.38377 29.1328 6.34041 30.4639 6.37804C30.7073 6.38497 30.8693 6.00183 31.0483 5.76547C31.327 5.72175 31.0654 5.94882 31.4156 6.12462C31.6422 5.98682 31.8014 5.60482 31.9326 5.35574C31.6851 4.87304 31.445 4.34212 31.2114 3.84906L32.2729 5.14573C31.6452 3.58452 30.7139 2.65499 29.1911 1.92961C28.5167 1.60839 27.6644 1.17954 26.9319 1.05927Z" fill="#FCFBFC"/>
<path d="M6.93555 9.23242C6.19485 9.62821 5.31362 10.4985 4.68657 11.0554C2.65255 12.8616 1.00602 14.4884 0.251608 17.1989C0.159441 17.5298 0.00656509 17.9261 1.43051e-05 18.2743L0.0683384 18.3171C0.626145 17.8555 1.47234 16.0883 2.25508 15.2988C3.42051 14.1235 4.44609 13.1082 5.82084 12.1093C6.42275 11.6718 7.31358 11.1667 7.84717 10.7501C7.29919 10.8174 6.92831 10.2951 6.71183 9.84819C6.69164 9.60726 6.82494 9.52393 6.92427 9.26297L6.93555 9.23242Z" fill="#8D8B8C"/>
<path d="M26.7089 5.95996C26.1576 6.04009 25.8629 6.41067 26.0598 6.9524C26.2238 7.40349 26.4634 7.46496 26.8657 7.656C27.1993 7.51874 27.4152 7.39489 27.5073 7.04099C27.4171 6.71597 26.9689 6.28735 26.7089 5.95996Z" fill="#FCFBFC"/>
<path d="M22.6343 13.5483C23.426 13.4221 25.691 12.6279 26.0308 11.9042C25.7533 11.8669 23.2833 13.0558 22.7793 13.2261L22.718 13.2466L22.6343 13.5483Z" fill="#FCFBFC" fill-opacity="0.980392"/>
<path d="M28.812 12.5527C27.9151 12.5052 25.9328 14.2109 26.1313 15.152C26.3331 15.0274 26.8968 14.0628 27.1576 13.8101C27.5805 13.4003 28.4852 12.9475 28.812 12.5527Z" fill="#FCFBFC" fill-opacity="0.894118"/>
<path d="M17.3394 1.09374C16.8426 1.04346 14.9951 0.812663 14.6551 1.08315L14.6078 1.22056C14.9963 1.45022 15.723 1.26193 16.1028 1.4845C16.7672 1.65025 16.6494 1.32484 17.276 1.11446L17.3394 1.09374Z" fill="#FCFBFC" fill-opacity="0.847059"/>
<path d="M29.8667 12.5273C29.2695 12.4346 27.8683 13.6909 27.8053 14.3237C27.8505 14.3257 27.8695 14.3305 27.9096 14.3221C27.9485 14.3139 29.7984 12.6374 29.8667 12.5273Z" fill="#FCFBFC" fill-opacity="0.890196"/>
<path d="M31.9567 31.3667C31.9971 31.5996 32.7915 32.9 32.9761 32.9778C32.9789 32.4931 32.3762 31.3945 32.1319 30.918C32.0842 31.0745 32.0498 31.2355 31.9567 31.3667Z" fill="#FCFBFC" fill-opacity="0.87451"/>
<path d="M25.4683 17.6785C25.1919 16.7803 25.495 15.7949 25.234 15.4365C24.9816 15.8841 24.9676 16.2335 24.9138 16.7346L25.0804 16.7703C25.1649 17.1355 25.1811 17.466 25.4683 17.6785Z" fill="#FCFBFC" fill-opacity="0.917647"/>
<path d="M27.3081 12.8916C26.795 13.0094 25.7086 14.0229 25.7507 14.5722L25.9263 14.5529C26.2082 14.0788 26.9135 13.3285 27.3081 12.8916Z" fill="#FCFBFC" fill-opacity="0.858824"/>
<path d="M23.5019 16.0877C23.7408 15.5902 23.956 15.2419 24.0542 14.6925L23.9904 14.6631C23.7649 14.91 23.4454 15.2075 23.353 15.5162C23.5045 15.7483 23.4941 15.8135 23.5019 16.0877Z" fill="#FCFBFC" fill-opacity="0.913725"/>
<path d="M4.28568 8.39551C3.84564 8.52454 3.22742 8.68846 2.82699 8.8811C3.27016 8.89436 3.99448 8.93496 4.41357 8.90479C4.32765 8.70218 4.27982 8.62166 4.28568 8.39551Z" fill="#979397" fill-opacity="0.988235"/>
<path d="M8.01013 12.0898C7.6244 12.2992 7.53101 12.3692 7.2053 12.6643L7.17971 12.7803C7.37143 12.7839 7.82062 12.4301 8.17139 12.3L8.01013 12.0898Z" fill="#979397" fill-opacity="0.572549"/>
<path d="M61.0822 6.19689L60.8022 8.46489H55.4542V25.4889H52.7942V8.46489H47.3062V6.19689H61.0822ZM69.5754 10.3969C70.0981 10.3969 70.5834 10.4529 71.0314 10.5649L70.5554 13.0849C70.1074 12.9729 69.6781 12.9169 69.2674 12.9169C68.3527 12.9169 67.6154 13.2529 67.0554 13.9249C66.4954 14.5969 66.0567 15.6422 65.7394 17.0609V25.4889H63.1634V10.7329H65.3754L65.6274 13.7289C66.0194 12.6276 66.5514 11.7969 67.2234 11.2369C67.8954 10.6769 68.6794 10.3969 69.5754 10.3969ZM84.2605 17.6769C84.2605 18.1062 84.2419 18.5449 84.2045 18.9929H74.7965C74.9085 20.6169 75.3192 21.8116 76.0285 22.5769C76.7379 23.3422 77.6525 23.7249 78.7725 23.7249C79.4819 23.7249 80.1352 23.6222 80.7325 23.4169C81.3299 23.2116 81.9552 22.8849 82.6085 22.4369L83.7285 23.9769C82.1605 25.2089 80.4432 25.8249 78.5765 25.8249C76.5232 25.8249 74.9179 25.1529 73.7605 23.8089C72.6219 22.4649 72.0525 20.6169 72.0525 18.2649C72.0525 16.7342 72.2952 15.3809 72.7805 14.2049C73.2845 13.0102 73.9939 12.0769 74.9085 11.4049C75.8419 10.7329 76.9339 10.3969 78.1845 10.3969C80.1445 10.3969 81.6472 11.0409 82.6925 12.3289C83.7379 13.6169 84.2605 15.3996 84.2605 17.6769ZM81.7125 16.9209C81.7125 15.4649 81.4232 14.3542 80.8445 13.5889C80.2659 12.8236 79.3979 12.4409 78.2405 12.4409C76.1312 12.4409 74.9832 13.9902 74.7965 17.0889H81.7125V16.9209ZM95.3183 10.3969C96.6623 10.3969 97.7077 10.7982 98.4543 11.6009C99.2197 12.4036 99.6023 13.5049 99.6023 14.9049V25.4889H97.0263V15.2689C97.0263 14.2236 96.8303 13.4862 96.4383 13.0569C96.0463 12.6276 95.4677 12.4129 94.7023 12.4129C93.9183 12.4129 93.2277 12.6369 92.6303 13.0849C92.033 13.5329 91.473 14.1769 90.9503 15.0169V25.4889H88.3743V10.7329H90.5863L90.8103 12.9169C91.333 12.1329 91.977 11.5169 92.7423 11.0689C93.5263 10.6209 94.385 10.3969 95.3183 10.3969ZM110.157 10.3969C111.034 10.3969 111.837 10.5276 112.565 10.7889C113.293 11.0316 113.993 11.4329 114.665 11.9929L113.433 13.6169C112.91 13.2436 112.397 12.9729 111.893 12.8049C111.407 12.6182 110.866 12.5249 110.269 12.5249C109.074 12.5249 108.141 13.0009 107.469 13.9529C106.815 14.9049 106.489 16.3142 106.489 18.1809C106.489 20.0476 106.815 21.4289 107.469 22.3249C108.122 23.2022 109.055 23.6409 110.269 23.6409C110.847 23.6409 111.379 23.5569 111.865 23.3889C112.35 23.2022 112.891 22.9129 113.489 22.5209L114.665 24.2009C113.321 25.2836 111.818 25.8249 110.157 25.8249C108.159 25.8249 106.582 25.1529 105.425 23.8089C104.286 22.4649 103.717 20.6076 103.717 18.2369C103.717 16.6689 103.978 15.2969 104.501 14.1209C105.023 12.9449 105.761 12.0302 106.713 11.3769C107.683 10.7236 108.831 10.3969 110.157 10.3969ZM125.096 10.3969C126.44 10.3969 127.485 10.7982 128.232 11.6009C128.997 12.4036 129.38 13.5049 129.38 14.9049V25.4889H126.804V15.2689C126.804 14.2236 126.598 13.4862 126.188 13.0569C125.796 12.6276 125.217 12.4129 124.452 12.4129C123.686 12.4129 123.005 12.6369 122.408 13.0849C121.81 13.5329 121.25 14.1676 120.728 14.9889V25.4889H118.152V4.82489L120.728 4.54489V12.7769C121.885 11.1902 123.341 10.3969 125.096 10.3969ZM145.702 17.6769C145.702 18.1062 145.683 18.5449 145.646 18.9929H136.238C136.35 20.6169 136.761 21.8116 137.47 22.5769C138.179 23.3422 139.094 23.7249 140.214 23.7249C140.923 23.7249 141.577 23.6222 142.174 23.4169C142.771 23.2116 143.397 22.8849 144.05 22.4369L145.17 23.9769C143.602 25.2089 141.885 25.8249 140.018 25.8249C137.965 25.8249 136.359 25.1529 135.202 23.8089C134.063 22.4649 133.494 20.6169 133.494 18.2649C133.494 16.7342 133.737 15.3809 134.222 14.2049C134.726 13.0102 135.435 12.0769 136.35 11.4049C137.283 10.7329 138.375 10.3969 139.626 10.3969C141.586 10.3969 143.089 11.0409 144.134 12.3289C145.179 13.6169 145.702 15.3996 145.702 17.6769ZM143.154 16.9209C143.154 15.4649 142.865 14.3542 142.286 13.5889C141.707 12.8236 140.839 12.4409 139.682 12.4409C137.573 12.4409 136.425 13.9902 136.238 17.0889H143.154V16.9209ZM156.228 10.3969C156.75 10.3969 157.236 10.4529 157.684 10.5649L157.208 13.0849C156.76 12.9729 156.33 12.9169 155.92 12.9169C155.005 12.9169 154.268 13.2529 153.708 13.9249C153.148 14.5969 152.709 15.6422 152.392 17.0609V25.4889H149.816V10.7329H152.028L152.28 13.7289C152.672 12.6276 153.204 11.7969 153.876 11.2369C154.548 10.6769 155.332 10.3969 156.228 10.3969ZM164.21 10.3969C165.218 10.3969 166.124 10.5369 166.926 10.8169C167.729 11.0969 168.494 11.5169 169.222 12.0769L168.13 13.7009C167.458 13.2716 166.814 12.9542 166.198 12.7489C165.601 12.5436 164.966 12.4409 164.294 12.4409C163.454 12.4409 162.792 12.6182 162.306 12.9729C161.821 13.3089 161.578 13.7756 161.578 14.3729C161.578 14.9702 161.802 15.4369 162.25 15.7729C162.717 16.1089 163.548 16.4356 164.742 16.7529C166.385 17.1636 167.608 17.7236 168.41 18.4329C169.232 19.1422 169.642 20.1129 169.642 21.3449C169.642 22.8009 169.073 23.9116 167.934 24.6769C166.814 25.4422 165.442 25.8249 163.818 25.8249C161.578 25.8249 159.721 25.1809 158.246 23.8929L159.618 22.3249C160.869 23.2769 162.25 23.7529 163.762 23.7529C164.733 23.7529 165.498 23.5569 166.058 23.1649C166.637 22.7542 166.926 22.2036 166.926 21.5129C166.926 21.0089 166.824 20.6076 166.618 20.3089C166.413 19.9916 166.058 19.7209 165.554 19.4969C165.05 19.2542 164.313 19.0022 163.342 18.7409C161.774 18.3302 160.636 17.7796 159.926 17.0889C159.236 16.3982 158.89 15.5209 158.89 14.4569C158.89 13.6916 159.114 13.0009 159.562 12.3849C160.029 11.7502 160.664 11.2649 161.466 10.9289C162.288 10.5742 163.202 10.3969 164.21 10.3969ZM183.693 25.4889L182.237 20.6449H174.929L173.473 25.4889H170.785L176.973 6.19689H180.333L186.493 25.4889H183.693ZM175.573 18.4889H181.593L178.597 8.40889L175.573 18.4889ZM192.127 6.19689V25.4889H189.467V6.19689H192.127Z" fill="white"/>
</svg>
